# xmcd
#
# Track frame offsets: 
#        150
#        9525
#        19831
#        30728
#        41857
#        55666
#        67298
#        76602
#        85886
#        97368
#        110483
#        124365
#        136505
#        146164
#        158069
#        171806
#        182488
#        190676
#        202123
#        213642
#
# Disc length: 3031 seconds
#
# Revision: 0
# Processed by: cddbd v1.5.2PL0 Copyright (c) Steve Scherf et al.
# Submitted via: ExactAudioCopy v0.99pb5
#
DISCID=1f0bd514
DTITLE=Various Artist - Lemon Popsicles And Strawberry Milkshakes CD1
DYEAR=1900
DGENRE=Rock and Roll
TTITLE0=Sam Cook - Wonderful World - Animal House - 1959
TTITLE1=Frankie Lymon and The Teenagers  - Why Do Fools Fall In Love - A
TTITLE1=merican Grafitti - 1956
TTITLE2=Link Wray and His Ray Men  - Rumble - Pulp Fiction - 1958
TTITLE3=Elvis Presley - Jailhouse Rock - Jailhouse Rock - 1957
TTITLE4=Bill Doggett - Honky Tonk (Part 1) - Blue Velvet - 1956
TTITLE5=Gene Vincent And His Blue Caps - Be-Bop-A-Lula - The Girl Can'
TTITLE5=t Help It - 1956
TTITLE6=Eddie Cochran - Somethin' Else - Diner - 1959
TTITLE7=Ritchie Valens - Come On Let's Go - La Bamba - 1958
TTITLE8=Tommy Edwards - Please Love Me Forever - Rain Man - 1958
TTITLE9=Bobby Darin - Beyond The Sea  - Goodfellas - 1959
TTITLE10=LaVern Baker And The Gliders With Orchestra - Tweedlee Dee - 
TTITLE10=The Departed - 1955
TTITLE11=Little Richard - Slippin' And Slidin' (Peepin' And Hidin') - 
TTITLE11=Casino - 1956
TTITLE12=Billy Williams - I'm Gonna Sit Right Down And Write Myself A 
TTITLE12=Letter - You've Got Mail  - 1957 Original ''Fats'' Waller And
TTITLE12=His Rhythm 1935
TTITLE13=Platters The - Smoke Gets In Your Eyes Four Weddings And A Fu
TTITLE13=neral - 1958 Original Tamara 1933
TTITLE14=The Five Satins - In The Still Of The Night (I'll Remember) -
TTITLE14=Dirty Dancing - 1956
TTITLE15=Duane Eddy And His Twangy Guitar - Rebel-Rouser - Forest Gump
TTITLE15=1958
TTITLE16=Coasters The - Yakety Yak - Stand By Me - 1958
TTITLE17=Bobby Darin - Dream Lover - Stardust - 1959
TTITLE18=Elvis Presley - Pocketful Of Rainbows - Jerry Maguire - 1960
TTITLE19=Orioles - Crying In The Chapel - Revolutionary Road - 1953 Or
TTITLE19=iginal Darrell Glenn 1953
EXTD=
EXTT0=
EXTT1=
EXTT2=
EXTT3=
EXTT4=
EXTT5=
EXTT6=
EXTT7=
EXTT8=
EXTT9=
EXTT10=
EXTT11=
EXTT12=
EXTT13=
EXTT14=
EXTT15=
EXTT16=
EXTT17=
EXTT18=
EXTT19=
PLAYORDER=
